<?xml version="1.0" encoding="UTF-8" standalone="no"?>
<svg
   xmlns:dc="http://purl.org/dc/elements/1.1/"
   xmlns:cc="http://creativecommons.org/ns#"
   xmlns:rdf="http://www.w3.org/1999/02/22-rdf-syntax-ns#"
   xmlns:svg="http://www.w3.org/2000/svg"
   xmlns="http://www.w3.org/2000/svg"
   xmlns:xlink="http://www.w3.org/1999/xlink"
   xmlns:sodipodi="http://sodipodi.sourceforge.net/DTD/sodipodi-0.dtd"
   xmlns:inkscape="http://www.inkscape.org/namespaces/inkscape"
   inkscape:version="1.0 (4035a4fb49, 2020-05-01)"
   sodipodi:docname="drawio.svg"
   viewBox="0 0 64 64"
   version="1.1"
   image-rendering="optimizeSpeed"
   enable-background="new 0 0 1024 1024"
   height="64"
   width="64"
   id="Calculator">
  <metadata
     id="metadata39">
    <rdf:RDF>
      <cc:Work
         rdf:about="">
        <dc:format>image/svg+xml</dc:format>
        <dc:type
           rdf:resource="http://purl.org/dc/dcmitype/StillImage" />
      </cc:Work>
    </rdf:RDF>
  </metadata>
  <sodipodi:namedview
     inkscape:current-layer="Calculator"
     inkscape:window-maximized="1"
     inkscape:window-y="24"
     inkscape:window-x="0"
     inkscape:cy="36.091755"
     inkscape:cx="0.17593275"
     inkscape:zoom="9.457553"
     showgrid="false"
     id="namedview37"
     inkscape:window-height="1030"
     inkscape:window-width="1920"
     inkscape:pageshadow="2"
     inkscape:pageopacity="0"
     guidetolerance="10"
     gridtolerance="10"
     objecttolerance="10"
     borderopacity="1"
     bordercolor="#666666"
     pagecolor="#ffffff"
     inkscape:document-rotation="0" />
  <defs
     id="defs24">
    <linearGradient
       id="linearGradient1390"
       inkscape:collect="always">
      <stop
         id="stop1386"
         offset="0"
         style="stop-color:#000000;stop-opacity:1;" />
      <stop
         id="stop1388"
         offset="1"
         style="stop-color:#000000;stop-opacity:0;" />
    </linearGradient>
    <filter
       color-interpolation-filters="sRGB"
       height="1.072"
       width="1.072"
       y="-.036"
       x="-.036"
       id="f">
      <feGaussianBlur
         id="feGaussianBlur2"
         stdDeviation="14.1435" />
    </filter>
    <linearGradient
       gradientUnits="userSpaceOnUse"
       gradientTransform="matrix(.063633 0 0 .063633 -.56761 -.53897)"
       y2="1484.8"
       y1="-138.46"
       x2="520.32"
       x1="520.32"
       id="a">
      <stop
         id="stop12"
         offset="0"
         stop-color="#ffda64" />
      <stop
         id="stop14"
         offset=".35152"
         stop-color="#fb7c38" />
      <stop
         id="stop16"
         offset=".44976"
         stop-color="#fb7c38" />
      <stop
         id="stop18"
         offset="1"
         stop-color="#f34f17" />
    </linearGradient>
    <linearGradient
       gradientTransform="matrix(0.86860802,0,0,1.0700536,-40.64064,-36.108689)"
       gradientUnits="userSpaceOnUse"
       y2="75.851257"
       x2="105.62344"
       y1="63.748463"
       x1="76.283272"
       id="linearGradient1492"
       xlink:href="#linearGradient1390"
       inkscape:collect="always" />
  </defs>
  <path
     id="path26"
     stroke-width="15.683"
     opacity=".25"
     filter="url(#f)"
     d="m983.25 511.35c0-7.95-0.2-15.85-0.5-23.55q-8-180.15-137.55-309.85c-92.05-92-203.2-138.05-333.4-138.05-130.15 0-241.35 46.05-333.35 138.05-92.05 92-138.1 203.2-138.1 333.4 0 130.15 46.05 241.35 138.1 333.35 86.15 86.3 189.35 132.15 309.15 137.6 8 0.3 16 0.5 24.2 0.5 130.2 0 241.35-46.1 333.4-138.1 92-92 138.05-203.2 138.05-333.35z"
     transform="matrix(.063633 0 0 .063633 -.56761 -.53897)" />
  <path
     id="path28"
     stroke-width=".99796"
     fill="url(#a)"
     d="m62 32c0-0.50588-0.01273-1.0086-0.03182-1.4986q-0.50906-11.464-8.7527-19.717c-5.8574-5.8543-12.93-8.7846-21.215-8.7846-8.2819 0-15.358 2.9303-21.212 8.7846-5.8574 5.8543-8.7877 12.93-8.7877 21.215 0 8.2819 2.9303 15.358 8.7877 21.212 5.482 5.4915 12.049 8.4091 19.672 8.7559 0.50907 0.01909 1.0181 0.03182 1.5399 0.03182 8.285 0 15.358-2.9335 21.215-8.7877 5.8543-5.8543 8.7846-12.93 8.7846-21.212z" />
  <path
     sodipodi:nodetypes="cccccc"
     d="M 37.381129,13.786036 15.471632,45.928915 41.021593,60.770589 C 46.141339,59.639806 49.679598,56.827442 54.58236,51.850083 59.583961,45.688521 61.898395,37.304 61.980601,28.629016 Z"
     style="opacity:0.25;fill:url(#linearGradient1492);fill-opacity:1;stroke-width:0.964094"
     id="path28-2" />
  <g
     transform="matrix(1.0588235,0,0,1.0588235,-1.882352,-2.335916)"
     id="g1639">
    <path
       d="m 27.99976,15 h 8 c 1.662,0 3,1.338 3,3 v 5.8 c 0,1.662 -1.338,3 -3,3 h -8 c -1.662,0 -3,-1.338 -3,-3 V 18 c 0,-1.662 1.338,-3 3,-3 z"
       inkscape:transform-center-y="-6.2803738"
       inkscape:transform-center-x="9.4205607"
       style="opacity:1;fill:#ffffff;fill-opacity:1"
       id="rect866" />
    <g
       id="g920"
       transform="translate(0,1.5995141)">
      <path
         d="m 18,32.664486 h 8 c 1.662,0 3,1.338 3,3 v 5.8 c 0,1.662 -1.338,3 -3,3 h -8 c -1.662,0 -3,-1.338 -3,-3 v -5.8 c 0,-1.662 1.338,-3 3,-3 z"
         inkscape:transform-center-y="-6.2803738"
         inkscape:transform-center-x="9.4205607"
         style="opacity:1;fill:#ffffff;fill-opacity:1"
         id="rect866-3" />
      <path
         d="m 38,32.67944 h 8 c 1.662,0 3,1.338 3,3 v 5.8 c 0,1.662 -1.338,3 -3,3 h -8 c -1.662,0 -3,-1.338 -3,-3 v -5.8 c 0,-1.662 1.338,-3 3,-3 z"
         inkscape:transform-center-y="-6.2803738"
         inkscape:transform-center-x="9.4205607"
         style="opacity:1;fill:#ffffff;fill-opacity:1"
         id="rect866-6" />
    </g>
    <g
       id="g964"
       transform="matrix(0.59812995,0,0,0.81231552,13.35972,4.5455017)">
      <path
         id="path897"
         d="M 26.451455,25.773799 16.86281,38.225731"
         style="fill:#ffffff;stroke:#ffffff;stroke-width:2.86926;stroke-linecap:butt;stroke-linejoin:miter;stroke-miterlimit:4;stroke-dasharray:none;stroke-opacity:1" />
      <path
         style="fill:#ffffff;stroke:#ffffff;stroke-width:2.86926;stroke-linecap:butt;stroke-linejoin:miter;stroke-miterlimit:4;stroke-dasharray:none;stroke-opacity:1"
         d="m 35.877073,25.77397 9.588645,12.451932"
         id="path897-3" />
    </g>
  </g>
</svg>
